# xmcd
#
# Track frame offsets: 
#        150
#        16781
#        35366
#        37405
#        52372
#        65888
#        79445
#        97378
#        111467
#        114998
#        132167
#        133651
#        150165
#        166503
#        181439
#        184399
#        202956
#        224250
#        238923
#        257871
#        261111
#        288686
#
# Disc length: 3916 seconds
#
# Revision: 1
# Processed by: cddbd v1.5.2PL0 Copyright (c) Steve Scherf et al.
# Submitted via: ExactAudioCopy v1.3
#
DISCID=580f4a16
DTITLE=Сибирский Синдикат - Не В Бровь А В Нос!
DYEAR=2005
DGENRE=Rap
TTITLE0=Останови Меня
TTITLE1=White Supasta
TTITLE2=Красная Ферари
TTITLE3=Я Плохой
TTITLE4=Замерзал Ямщик (feat. Иезекииль 25:17)
TTITLE5=Ямакан
TTITLE6=Пришествие Героев
TTITLE7=Горе Годы (feat. Многоточие and Иезекииль 25:17)
TTITLE8=Эхо Третьего Подземелья
TTITLE9=Дартс - Не В Бровь А В Нос!
TTITLE10=Nagawanas Это Плохо
TTITLE11=Пьяно Напился
TTITLE12=Промышленная Зона (feat. Иезекииль 25:17)
TTITLE13=Vita Brevis
TTITLE14=Из Далекого Края Сибирского
TTITLE15=Жадность
TTITLE16=Слово-Молот
TTITLE17=Воззрение На Мир
TTITLE18=Замерзал Ямщик [Remix]
TTITLE19=Цветные Мны
TTITLE20=Никто Не Хотел Умирать
TTITLE21=Шествие Инквизиторов
EXTD=
EXTT0=
EXTT1=
EXTT2=
EXTT3=
EXTT4=
EXTT5=
EXTT6=
EXTT7=
EXTT8=
EXTT9=
EXTT10=
EXTT11=
EXTT12=
EXTT13=
EXTT14=
EXTT15=
EXTT16=
EXTT17=
EXTT18=
EXTT19=
EXTT20=
EXTT21=
PLAYORDER=
